<svg width="48" height="48" viewBox="0 0 48 48" fill="none" xmlns="http://www.w3.org/2000/svg">
<g clip-path="url(#clip0_1005_3186)">
<path d="M37.159 4.03722L39.2041 5.51903L38.4196 7.91903C38.3765 8.05072 38.3764 8.19267 38.4191 8.32448C38.4618 8.45629 38.5451 8.57116 38.6572 8.6526C38.7693 8.73403 38.9044 8.77783 39.0429 8.7777C39.1815 8.77757 39.3164 8.73352 39.4283 8.65187L41.4687 7.1635L43.5094 8.65234C43.6213 8.73399 43.7563 8.77804 43.8948 8.77817C44.0334 8.7783 44.1684 8.7345 44.2805 8.65307C44.3926 8.57163 44.476 8.45676 44.5187 8.32495C44.5614 8.19314 44.5612 8.05119 44.5181 7.9195L43.7336 5.5195L45.781 4.03759C45.8932 3.95642 45.9768 3.84179 46.0198 3.71014C46.0628 3.57849 46.0629 3.43662 46.0202 3.30488C45.9775 3.17315 45.8942 3.05834 45.7821 2.97694C45.6701 2.89555 45.5351 2.85175 45.3967 2.85184H45.3955L42.8676 2.85634L42.0922 0.45381C42.0496 0.321907 41.9664 0.20689 41.8543 0.125301C41.7423 0.0437115 41.6073 -0.000244141 41.4687 -0.000244141C41.3301 -0.000244141 41.1951 0.0437115 41.0831 0.125301C40.9711 0.20689 40.8878 0.321907 40.8453 0.45381L40.0699 2.85615L37.5444 2.85165H37.5433C37.4049 2.85162 37.27 2.89543 37.158 2.97682C37.046 3.05821 36.9627 3.17298 36.92 3.30467C36.8773 3.43635 36.8775 3.57818 36.9204 3.70979C36.9633 3.8414 37.0468 3.95602 37.1589 4.03722H37.159ZM40.5455 4.16715H40.5466C40.6852 4.16717 40.8202 4.12324 40.9322 4.0417C41.0442 3.96015 41.1275 3.84517 41.17 3.71331L41.4687 2.78772L41.7676 3.71331C41.8101 3.84516 41.8934 3.96012 42.0054 4.04167C42.1174 4.12321 42.2524 4.16715 42.3909 4.16715H42.3922L43.3693 4.16547L42.5782 4.738C42.4659 4.81936 42.3822 4.9343 42.3393 5.06625C42.2964 5.1982 42.2966 5.34036 42.3397 5.47225L42.6423 6.39822L41.8548 5.82372C41.7427 5.74196 41.6075 5.69791 41.4688 5.69791C41.33 5.69791 41.1949 5.74196 41.0827 5.82372L40.2952 6.39822L40.5979 5.47225C40.6409 5.34041 40.6411 5.1983 40.5982 5.06639C40.5554 4.93448 40.4718 4.81956 40.3595 4.73819L39.5691 4.16547L40.5455 4.16715ZM46.0199 20.0906C45.9772 19.959 45.8939 19.8442 45.7819 19.7629C45.67 19.6815 45.5351 19.6377 45.3967 19.6377H45.3956L42.8677 19.6422L42.0922 17.2374C42.0497 17.1055 41.9664 16.9906 41.8544 16.909C41.7424 16.8275 41.6074 16.7836 41.4688 16.7836C41.3303 16.7836 41.1953 16.8275 41.0832 16.909C40.9712 16.9906 40.8879 17.1055 40.8454 17.2374L40.0699 19.6422L37.5446 19.6377H37.5435C37.405 19.6376 37.2701 19.6814 37.1581 19.7629C37.0461 19.8443 36.9627 19.9591 36.92 20.0908C36.8773 20.2225 36.8775 20.3644 36.9204 20.4961C36.9634 20.6277 37.0469 20.7423 37.1591 20.8235L39.2037 22.3028L38.4193 24.7028C38.3763 24.8345 38.3761 24.9765 38.4188 25.1083C38.4615 25.2401 38.5449 25.3549 38.657 25.4364C38.7691 25.5178 38.9041 25.5616 39.0426 25.5615C39.1812 25.5614 39.3161 25.5173 39.4281 25.4357L41.4684 23.9473L43.5094 25.4355C43.6213 25.5171 43.7563 25.5612 43.8948 25.5613C44.0334 25.5614 44.1684 25.5176 44.2805 25.4362C44.3926 25.3548 44.476 25.2399 44.5187 25.1081C44.5614 24.9763 44.5612 24.8343 44.5181 24.7026L43.7337 22.3026L45.7807 20.8232C45.8928 20.7421 45.9764 20.6275 46.0194 20.4958C46.0624 20.3642 46.0626 20.2223 46.0199 20.0906ZM42.3397 22.2557L42.6423 23.1815L41.8548 22.6071C41.7427 22.5254 41.6075 22.4813 41.4688 22.4813C41.33 22.4813 41.1949 22.5254 41.0827 22.6071L40.2952 23.1815L40.5979 22.2557C40.641 22.1237 40.6411 21.9816 40.5982 21.8496C40.5553 21.7176 40.4716 21.6027 40.3592 21.5213L39.5717 20.9515L40.5457 20.9532H40.5468C40.6854 20.9532 40.8204 20.9092 40.9324 20.8276C41.0445 20.7461 41.1278 20.6311 41.1703 20.4992L41.4689 19.5729L41.7677 20.4992C41.8102 20.631 41.8935 20.746 42.0055 20.8276C42.1175 20.9092 42.2525 20.9532 42.3911 20.9532H42.3923L43.3673 20.9515L42.5791 21.5211C42.4665 21.6024 42.3827 21.7172 42.3397 21.8492C42.2966 21.9812 42.2966 22.1234 42.3397 22.2554V22.2557ZM4.5795 20.8234L6.62643 22.3031L5.84203 24.7031C5.79898 24.8348 5.79879 24.9767 5.84149 25.1085C5.8842 25.2404 5.96758 25.3552 6.07968 25.4367C6.19177 25.5181 6.32679 25.5619 6.46535 25.5618C6.6039 25.5616 6.73884 25.5176 6.85078 25.4359L8.89125 23.9471L10.9312 25.4355C11.0432 25.5171 11.1781 25.5612 11.3167 25.5613C11.4552 25.5614 11.5903 25.5176 11.7023 25.4362C11.8144 25.3548 11.8978 25.2399 11.9405 25.1081C11.9832 24.9763 11.983 24.8343 11.94 24.7026L11.1562 22.3025L13.2008 20.8232C13.3131 20.742 13.3967 20.6273 13.4396 20.4956C13.4826 20.3639 13.4826 20.2219 13.4398 20.0902C13.397 19.9584 13.3136 19.8436 13.2014 19.7622C13.0893 19.6809 12.9543 19.6372 12.8157 19.6374L10.2905 19.6419L9.51497 17.2371C9.47239 17.1053 9.38911 16.9903 9.2771 16.9088C9.16508 16.8272 9.03009 16.7833 8.89153 16.7833C8.75297 16.7833 8.61798 16.8272 8.50596 16.9088C8.39394 16.9903 8.31066 17.1053 8.26809 17.2371L7.49259 19.6419L4.96472 19.6374H4.96359C4.82509 19.6374 4.69014 19.6812 4.57814 19.7627C4.46613 19.8442 4.38282 19.959 4.34019 20.0908C4.29756 20.2226 4.29779 20.3645 4.34085 20.4961C4.38392 20.6277 4.4676 20.7423 4.57987 20.8234H4.5795ZM7.96781 20.9531H7.96875C8.10734 20.9531 8.24237 20.9091 8.35441 20.8276C8.46645 20.746 8.54974 20.631 8.59228 20.4991L8.89106 19.5728L9.18965 20.4991C9.23222 20.631 9.31551 20.7459 9.42754 20.8275C9.53958 20.9091 9.6746 20.9531 9.81319 20.9531H9.81431L10.7883 20.9514L10.0008 21.5212C9.88837 21.6026 9.80469 21.7175 9.76179 21.8495C9.71889 21.9815 9.719 22.1237 9.76209 22.2556L10.0647 23.1814L9.27722 22.607C9.16509 22.5253 9.02991 22.4812 8.89115 22.4812C8.75239 22.4812 8.61722 22.5253 8.50509 22.607L7.71759 23.1814L8.02022 22.2556C8.06338 22.1236 8.0635 21.9813 8.02055 21.8492C7.97759 21.7172 7.8938 21.6022 7.78125 21.5208L6.993 20.9512L7.96781 20.9531ZM4.57912 4.0374L6.62653 5.51931L5.84203 7.91931C5.79898 8.051 5.79879 8.19296 5.84149 8.32476C5.8842 8.45657 5.96758 8.57144 6.07968 8.65288C6.19177 8.73431 6.32679 8.77811 6.46535 8.77798C6.6039 8.77785 6.73884 8.7338 6.85078 8.65215L8.89125 7.16397L10.9312 8.65234C11.0432 8.73399 11.1781 8.77804 11.3167 8.77817C11.4552 8.7783 11.5903 8.7345 11.7023 8.65307C11.8144 8.57163 11.8978 8.45676 11.9405 8.32495C11.9832 8.19314 11.983 8.05119 11.94 7.9195L11.1562 5.51903L13.2009 4.03722C13.313 3.95599 13.3965 3.84136 13.4393 3.70977C13.4822 3.57818 13.4823 3.43639 13.4396 3.30473C13.397 3.17308 13.3137 3.05832 13.2017 2.97693C13.0898 2.89553 12.955 2.85168 12.8166 2.85165H12.8156L10.2902 2.85615L9.51459 0.45381C9.47207 0.321907 9.38881 0.20689 9.27678 0.125301C9.16476 0.0437115 9.02974 -0.000244141 8.89115 -0.000244141C8.75257 -0.000244141 8.61755 0.0437115 8.50552 0.125301C8.3935 0.20689 8.31024 0.321907 8.26772 0.45381L7.49231 2.85615L4.96434 2.85165H4.96322C4.82473 2.85156 4.68979 2.89536 4.57775 2.97676C4.46572 3.05815 4.38237 3.17296 4.33966 3.3047C4.29696 3.43643 4.2971 3.57831 4.34008 3.70995C4.38305 3.8416 4.46664 3.95624 4.57884 4.0374H4.57912ZM7.96781 4.16715H7.96875C8.10731 4.16717 8.24231 4.12324 8.35433 4.0417C8.46635 3.96015 8.54963 3.84517 8.59219 3.71331L8.89106 2.78772L9.18975 3.71331C9.23232 3.84517 9.3156 3.96013 9.42762 4.04168C9.53964 4.12322 9.67463 4.16715 9.81319 4.16715H9.81431L10.7907 4.16547L10.0002 4.73819C9.88793 4.81958 9.80436 4.9345 9.76153 5.06641C9.71871 5.19832 9.71884 5.34042 9.7619 5.47225L10.0645 6.39822L9.27703 5.82372C9.16491 5.74197 9.02973 5.69792 8.89097 5.69792C8.75221 5.69792 8.61703 5.74197 8.5049 5.82372L7.7174 6.39822L8.02003 5.47225C8.06312 5.34036 8.06324 5.1982 8.02036 5.06625C7.97748 4.9343 7.89382 4.81936 7.78144 4.738L6.99037 4.16547L7.96781 4.16715ZM16.6687 20.4569L14.0744 28.4893C14.0364 28.6067 14.0325 28.7325 14.0629 28.8522C14.0933 28.9718 14.1569 29.0804 14.2464 29.1655C14.3359 29.2505 14.4475 29.3086 14.5686 29.3329C14.6896 29.3573 14.815 29.347 14.9304 29.3031L18.2219 28.0526L20.1449 30.9994C20.2044 31.0906 20.2857 31.1656 20.3815 31.2174C20.4773 31.2693 20.5844 31.2965 20.6933 31.2965C20.7224 31.2965 20.7514 31.2946 20.7802 31.2907C20.9029 31.2744 21.0183 31.2236 21.1133 31.1444C21.2083 31.0651 21.2788 30.9606 21.3169 30.8429L23.4885 24.1237C24.0457 24.2065 24.6082 24.248 25.1715 24.2478C25.3748 24.2478 25.5803 24.2425 25.7857 24.2315C26.1514 24.2121 26.5132 24.1758 26.8711 24.1227L29.0423 30.8429C29.0804 30.9606 29.1509 31.0651 29.2459 31.1444C29.3409 31.2236 29.4564 31.2744 29.579 31.2907C29.6078 31.2946 29.6368 31.2965 29.6659 31.2965C29.7748 31.2965 29.882 31.2693 29.9777 31.2174C30.0735 31.1656 30.1548 31.0906 30.2143 30.9994L32.1375 28.0526L35.429 29.3031C35.5444 29.347 35.6698 29.3573 35.7908 29.3329C35.9119 29.3086 36.0235 29.2505 36.113 29.1655C36.2025 29.0804 36.2661 28.9718 36.2965 28.8522C36.3269 28.7325 36.323 28.6067 36.285 28.4893L33.6927 20.4628C33.6969 20.4581 33.7012 20.4534 33.7055 20.4489C35.1901 18.8009 36.1651 16.7578 36.5123 14.567C36.8595 12.3762 36.5639 10.1317 35.6615 8.10544C34.7591 6.07917 33.2886 4.35801 31.4279 3.15046C29.5673 1.94291 27.3965 1.30076 25.1783 1.30179C22.9602 1.30283 20.79 1.94701 18.9305 3.15631C17.071 4.3656 15.602 6.08813 14.7015 8.11525C13.801 10.1424 13.5076 12.3871 13.8568 14.5776C14.206 16.768 15.1829 18.8103 16.6691 20.4569H16.6687ZM20.4922 29.1342L19.0312 26.895C18.9496 26.7698 18.8276 26.6764 18.6855 26.6301C18.5434 26.5838 18.3898 26.5874 18.25 26.6404L15.7406 27.5937L17.7157 21.4786C19.0141 22.5951 20.5458 23.4068 22.1987 23.8544L20.4922 29.1342ZM34.6191 27.5937L32.1099 26.6404C31.9702 26.5874 31.8165 26.5838 31.6744 26.6301C31.5323 26.6763 31.4103 26.7698 31.3286 26.895L29.8675 29.134L28.1622 23.8559C29.8166 23.4143 31.3496 22.6039 32.6462 21.4854L34.6191 27.5937ZM17.6296 5.98928C18.519 4.99497 19.5969 4.18702 20.8008 3.61223C22.0047 3.03743 23.3106 2.70722 24.643 2.64072C24.827 2.6309 25.0104 2.62603 25.1932 2.62609C27.1548 2.62889 29.0736 3.1997 30.7178 4.26954C32.362 5.33938 33.6611 6.86247 34.4583 8.65477C35.2555 10.4471 35.5166 12.4319 35.21 14.3694C34.9034 16.3068 34.0423 18.1141 32.7307 19.5727C31.2871 21.1868 29.362 22.2931 27.2406 22.7278C27.2111 22.7316 27.182 22.7373 27.1533 22.745C26.679 22.838 26.1987 22.8976 25.7161 22.9232C23.7103 23.029 21.7182 22.5378 19.9916 21.5115C18.265 20.4853 16.8815 18.9701 16.0159 17.1576C15.1504 15.3451 14.8417 13.3166 15.129 11.3287C15.4162 9.34078 16.2864 7.48266 17.6296 5.98928ZM37.8796 35.1677C36.5002 35.6647 35.1204 36.1621 33.7402 36.6601C32.8114 36.9949 31.8827 37.3298 30.954 37.6646C30.9699 37.5353 30.9779 37.4052 30.9778 37.275C30.9769 36.4418 30.6455 35.643 30.0563 35.0538C29.4671 34.4646 28.6683 34.1332 27.8351 34.1323H23.0778C22.7514 34.137 22.4283 34.0664 22.1335 33.926C16.345 31.2729 14.2546 31.3209 9.67415 31.4254L9.16312 31.437V29.4082C9.16312 29.2345 9.0941 29.0678 8.97124 28.945C8.84838 28.8221 8.68175 28.7531 8.508 28.7531H2.60315C2.4294 28.7531 2.26277 28.8221 2.13991 28.945C2.01705 29.0678 1.94803 29.2345 1.94803 29.4082V46.6593C1.94803 46.8331 2.01705 46.9997 2.13991 47.1226C2.26277 47.2454 2.4294 47.3145 2.60315 47.3145H8.50847C8.68222 47.3145 8.84885 47.2454 8.97171 47.1226C9.09457 46.9997 9.16359 46.8331 9.16359 46.6593V44.3404C11.7289 44.3873 12.2292 44.6404 15.1423 46.1157C15.5563 46.3254 16.017 46.5588 16.5364 46.8188C17.9563 47.5944 19.5484 48.0006 21.1663 48C22.4701 48 23.8317 47.7463 25.2653 47.2396C25.2716 47.2374 25.2778 47.2351 25.2841 47.2327L40.1572 41.4631C40.992 41.161 41.6726 40.5397 42.0493 39.7359C42.4261 38.932 42.468 38.0114 42.166 37.1766C41.8639 36.3418 41.2427 35.6611 40.4388 35.2844C39.6349 34.9077 38.7143 34.8657 37.8795 35.1677H37.8796ZM7.85343 46.0039H3.25828V30.0633H7.85343V46.0039ZM39.7051 40.2332L39.6904 40.2387L24.8195 46.0076C21.9682 47.0129 19.4585 46.8991 17.1473 45.6592C17.1417 45.6562 17.1361 45.6533 17.1305 45.6506C16.61 45.3904 16.1487 45.1568 15.7344 44.9469C12.6981 43.4088 12.0607 43.0864 9.16359 43.0304V32.7475L9.70443 32.7354C14.2089 32.6328 16.0733 32.59 21.5868 35.1167C22.0531 35.3352 22.5624 35.4466 23.0774 35.4424H27.8346C28.175 35.4422 28.5088 35.5368 28.7985 35.7158C29.0881 35.8947 29.3221 36.1509 29.4742 36.4555C29.6263 36.7601 29.6905 37.101 29.6595 37.4401C29.6285 37.7792 29.5036 38.1029 29.2988 38.3748L29.2972 38.3775C29.2879 38.3884 29.2774 38.3991 29.2681 38.4108C29.0979 38.6283 28.8803 38.8041 28.6319 38.9248C28.3834 39.0455 28.1107 39.1079 27.8346 39.1073H20.0853C19.9115 39.1073 19.7449 39.1763 19.622 39.2992C19.4992 39.4221 19.4302 39.5887 19.4302 39.7624C19.4302 39.9362 19.4992 40.1028 19.622 40.2257C19.7449 40.3485 19.9115 40.4176 20.0853 40.4176H27.8349C28.2866 40.4186 28.7332 40.3214 29.1436 40.1326C29.554 39.9439 29.9184 39.6682 30.2117 39.3246C31.5356 38.8476 32.8598 38.3702 34.1844 37.8924C35.5643 37.3948 36.9441 36.8974 38.3238 36.4002C38.8323 36.2196 39.3916 36.2471 39.88 36.4767C40.3684 36.7063 40.7464 37.1194 40.9318 37.6262C41.1136 38.1347 41.0865 38.6944 40.8566 39.183C40.6267 39.6716 40.2127 40.0492 39.7051 40.2332ZM25.1796 20.9582C25.3233 20.9582 25.4683 20.9544 25.6134 20.9468C27.7604 20.8331 29.7762 19.8785 31.2245 18.2896C32.6728 16.7007 33.4371 14.6053 33.3519 12.4571C33.2667 10.3088 32.339 8.2805 30.7694 6.81123C29.1998 5.34196 27.1148 4.54993 24.9656 4.60659C22.8164 4.66324 20.776 5.56403 19.286 7.11395C17.796 8.66387 16.9764 10.7382 17.0045 12.888C17.0327 15.0377 17.9063 17.0899 19.4363 18.6004C20.9663 20.1108 23.0296 20.9578 25.1796 20.9582ZM20.075 8.18884C20.6762 7.51681 21.4048 6.97073 22.2185 6.58222C23.0323 6.19372 23.915 5.97051 24.8156 5.92553C24.9406 5.91897 25.065 5.91569 25.1887 5.91569C26.7606 5.91834 28.284 6.46046 29.5042 7.45142C30.7243 8.44238 31.5674 9.82214 31.8924 11.3601C32.2175 12.898 32.0048 14.5009 31.2899 15.9008C30.575 17.3007 29.4013 18.4128 27.9649 19.0513C26.5285 19.6897 24.9165 19.8158 23.3983 19.4084C21.8801 19.001 20.5478 18.0849 19.624 16.8131C18.7002 15.5413 18.2409 13.991 18.3229 12.4212C18.4049 10.8515 19.0232 9.35744 20.0745 8.18884H20.075Z" fill="#111111"/>
</g>
<defs>
<clipPath id="clip0_1005_3186">
<rect width="48" height="48" fill="white"/>
</clipPath>
</defs>
</svg>
