<svg xmlns="http://www.w3.org/2000/svg" width="18" height="18" viewBox="0 0 18 18" fill="none">
  <g clip-path="url(#clip0_1005_2995)">
    <path d="M15.1875 5.0625H2.8125C2.50184 5.0625 2.25 5.31434 2.25 5.625V14.0625C2.25 14.3732 2.50184 14.625 2.8125 14.625H15.1875C15.4982 14.625 15.75 14.3732 15.75 14.0625V5.625C15.75 5.31434 15.4982 5.0625 15.1875 5.0625Z" stroke="black" stroke-linecap="round" stroke-linejoin="round"/>
    <path d="M6.1875 5.0625V4.5C6.1875 3.75408 6.48382 3.03871 7.01126 2.51126C7.53871 1.98382 8.25408 1.6875 9 1.6875C9.74592 1.6875 10.4613 1.98382 10.9887 2.51126C11.5162 3.03871 11.8125 3.75408 11.8125 4.5V5.0625" stroke="black" stroke-linecap="round" stroke-linejoin="round"/>
  </g>
  <defs>
    <clipPath id="clip0_1005_2995">
      <rect width="18" height="18" fill="white"/>
    </clipPath>
  </defs>
</svg>