<svg width="47" height="50" viewBox="0 0 47 50" fill="none" xmlns="http://www.w3.org/2000/svg">
<path d="M45.8904 12.1712L23.7423 0.101156C23.619 0.0347358 23.4815 0 23.3419 0C23.2023 0 23.0648 0.0347358 22.9415 0.101156L0.793374 12.1712C0.655757 12.2434 0.540203 12.3522 0.45915 12.4858C0.378088 12.6195 0.334601 12.7731 0.333374 12.9299V37.07C0.333783 37.226 0.375992 37.3789 0.455496 37.5126C0.535007 37.6461 0.648832 37.7554 0.784856 37.8287L22.933 49.8988C23.0563 49.9653 23.1938 50 23.3334 50C23.473 50 23.6105 49.9653 23.7337 49.8988L45.8819 37.8287C46.0179 37.7554 46.1317 37.6461 46.2112 37.5126C46.2908 37.3789 46.3329 37.226 46.3334 37.07V12.9299C46.3338 12.7748 46.2928 12.6225 46.2149 12.489C46.1369 12.3554 46.0248 12.2457 45.8904 12.1712ZM23.3334 1.84269L43.6926 12.9299L37.7297 16.1802L18.0774 4.70502L23.3334 1.84269ZM2.97411 12.9299L9.38856 9.4813L29.0323 20.9134L23.3334 24.0171L2.97411 12.9299ZM16.3141 5.66201L35.9663 17.1372L30.7956 19.9564L11.1519 8.47259L16.3141 5.66201ZM31.9286 21.2927L36.5626 18.7753V25.2069L34.7737 23.4136C34.6743 23.3137 34.5522 23.2401 34.4179 23.1994C34.2838 23.1587 34.1417 23.1521 34.0043 23.1802C33.867 23.2084 33.7387 23.2704 33.6307 23.3607C33.5227 23.451 33.4384 23.5669 33.3852 23.6981L31.9286 27.2502V21.2927ZM2.03708 14.3697L22.4815 25.5173V47.7003L2.03708 36.5527V14.3697ZM24.1852 47.7003V25.5173L30.2249 22.2238V31.5868C30.2347 31.7798 30.3084 31.964 30.4341 32.1095C30.5597 32.2551 30.7301 32.3536 30.9178 32.3895C31.1055 32.4253 31.2996 32.3962 31.469 32.3069C31.6384 32.2176 31.7733 32.0734 31.8519 31.8971L34.4586 25.5259L36.7926 27.8709C36.9118 27.9926 37.064 28.0754 37.2299 28.1091C37.3958 28.1428 37.5678 28.1258 37.7241 28.0601C37.8804 27.9944 38.0138 27.8832 38.1073 27.7404C38.2008 27.5977 38.2503 27.43 38.2493 27.2588V17.8441L44.6212 14.3955V36.5527L24.1852 47.7003Z" fill="black"/>
</svg>
