<svg width="39" height="50" viewBox="0 0 39 50" fill="none" xmlns="http://www.w3.org/2000/svg">
<path d="M38.4434 18.2508L35.1868 14.6943L36.2058 10.0042C36.3003 9.58818 36.0482 9.1722 35.6385 9.03701L31.0267 7.56032L29.5455 2.99501C29.4089 2.58943 28.9887 2.35025 28.5685 2.43344L23.8306 3.44218L20.2379 0.218386C19.9227 -0.0727954 19.429 -0.0727954 19.1138 0.218386L15.521 3.44218L10.7832 2.43344C10.363 2.33985 9.94277 2.58943 9.8062 2.99501L8.31446 7.56032L3.69217 9.03701C3.28247 9.1722 3.04086 9.58818 3.1249 10.0042L4.1439 14.6943L0.887296 18.2508C0.593151 18.5628 0.593151 19.0516 0.887296 19.3636L4.1439 22.9201L3.1249 27.6102C3.03036 28.0262 3.28247 28.4422 3.69217 28.5774L8.30396 30.0541L8.49305 30.6468L3.00935 45.6947C2.88328 46.0275 2.98834 46.4018 3.27198 46.6202C3.5451 46.8386 3.93379 46.8698 4.23844 46.6826L9.83772 43.2924L11.9493 49.4384C12.0648 49.7712 12.38 50 12.7372 50H12.7477C13.1048 50 13.42 49.7816 13.5355 49.4488L18.2314 36.5953L19.1138 37.3856C19.2714 37.5312 19.471 37.604 19.6811 37.604C19.8912 37.604 20.0803 37.5312 20.2484 37.3856L21.1308 36.5953L25.8266 49.4488C25.9422 49.7816 26.2679 50 26.6145 50H26.625C26.9822 50 27.2974 49.7712 27.4129 49.4384L29.5245 43.2924L35.1237 46.6826C35.4284 46.8698 35.8171 46.8386 36.0902 46.6202C36.3633 46.4018 36.4684 46.0275 36.3528 45.6947L30.8586 30.6572L31.0477 30.0645L35.6595 28.5878C36.0692 28.4526 36.3108 28.0366 36.2268 27.6206L35.2078 22.9305L38.4644 19.374C38.7375 19.0516 38.7375 18.5732 38.4434 18.2508ZM12.7582 46.6618L11.0773 41.7741C10.9933 41.5349 10.8042 41.3478 10.5626 41.2542C10.321 41.1606 10.0583 41.1918 9.83772 41.327L5.38351 44.0204L9.32296 33.2363L9.77469 34.6194C9.91125 35.025 10.3315 35.2641 10.7517 35.1809L15.4895 34.1722L16.8552 35.3993L12.7582 46.6618ZM33.9366 44.0308L29.4824 41.3374C29.2618 41.2022 28.9992 41.1814 28.7576 41.2646C28.516 41.3478 28.3269 41.5349 28.2428 41.7845L26.562 46.6722L22.444 35.4097L23.8096 34.1826L28.5475 35.1913C28.9677 35.2849 29.3879 35.0354 29.5245 34.6298L29.9762 33.2467L33.9366 44.0308ZM33.6635 22.1298C33.4849 22.3274 33.4114 22.5977 33.4639 22.8577L34.4094 27.2359L30.1128 28.6086C29.8606 28.6918 29.6505 28.8893 29.5665 29.1493L29.1568 30.3972L28.1798 33.4027L23.7571 32.4667C23.4945 32.4147 23.2213 32.4875 23.0217 32.6643L19.6706 35.6593L16.3194 32.6539C16.1618 32.5187 15.9622 32.4355 15.7521 32.4355C15.6891 32.4355 15.6366 32.4459 15.5736 32.4563L11.1509 33.3923L10.1739 30.3869L9.76418 29.1389C9.68014 28.8893 9.48054 28.6814 9.21791 28.5982L4.93179 27.2359L5.87726 22.8577C5.92978 22.5977 5.85625 22.3274 5.67766 22.1298L2.65217 18.8124L5.68816 15.495C5.86675 15.2974 5.94029 15.027 5.88776 14.767L4.94229 10.3889L9.23892 9.01621C9.49104 8.93302 9.70115 8.73544 9.78519 8.47546L11.1614 4.22213L15.5841 5.15807C15.8467 5.21007 16.1198 5.13727 16.3194 4.96048L19.6706 1.96547L23.0217 4.97088C23.2213 5.14767 23.4945 5.22047 23.7571 5.16847L28.1798 4.23253L29.5665 8.48586C29.6505 8.73544 29.8501 8.94342 30.1128 9.02661L34.4094 10.3993L33.4639 14.7774C33.4114 15.0374 33.4849 15.3078 33.6635 15.5054L36.689 18.8124L33.6635 22.1298Z" fill="black"/>
<path d="M19.6707 6.74902C12.7162 6.74902 7.06442 12.3439 7.06442 19.2282C7.06442 26.1126 12.7162 31.7074 19.6707 31.7074C26.6251 31.7074 32.2769 26.1126 32.2769 19.2282C32.2769 12.3439 26.6251 6.74902 19.6707 6.74902ZM19.6707 30.0435C13.6512 30.0435 8.74525 25.187 8.74525 19.2282C8.74525 13.2694 13.6512 8.41292 19.6707 8.41292C25.6901 8.41292 30.5961 13.2694 30.5961 19.2282C30.5961 25.187 25.6901 30.0435 19.6707 30.0435Z" fill="black"/>
<path d="M24.3665 13.0511L17.1495 20.1227L14.9749 17.9908C14.3236 17.3565 13.2625 17.3565 12.6007 17.9908L11.2665 19.2907C10.9514 19.6027 10.7728 20.0187 10.7728 20.4659C10.7728 20.913 10.9514 21.329 11.2665 21.641L15.9624 26.2375C16.288 26.5599 16.7187 26.7159 17.1495 26.7159C17.5802 26.7159 18.0109 26.5599 18.3365 26.2375L28.0749 16.7117C28.39 16.3997 28.5686 15.9838 28.5686 15.5366C28.5686 15.0894 28.39 14.6734 28.0749 14.3615L26.7407 13.0615C26.0894 12.4168 25.0179 12.4168 24.3665 13.0511ZM19.0824 23.1697L17.1495 25.052L12.4641 20.4659L13.7983 19.1763L16.5612 21.8802C16.8868 22.2026 17.4121 22.2026 17.7377 21.8802L25.5536 14.2367L24.9653 13.6439L26.8878 15.5262L19.0824 23.1697Z" fill="black"/>
</svg>
